<svg width="247" height="90" viewBox="0 0 247 90" fill="none" xmlns="http://www.w3.org/2000/svg">
<circle cx="18.5" cy="18.5" r="18.5" fill="#00C12B"/>
<circle cx="18.5" cy="18.5" r="17.5" stroke="black" stroke-opacity="0.2" stroke-width="2"/>
<circle cx="71" cy="18.5" r="18.5" fill="#F50606"/>
<circle cx="71" cy="18.5" r="18" stroke="black" stroke-opacity="0.2"/>
<circle cx="123.5" cy="18.5" r="18.5" fill="#F5DD06"/>
<circle cx="123.5" cy="18.5" r="18" stroke="black" stroke-opacity="0.2"/>
<circle cx="176" cy="18.5" r="18.5" fill="#F57906"/>
<circle cx="176" cy="18.5" r="18" stroke="black" stroke-opacity="0.2"/>
<circle cx="228.5" cy="18.5" r="18.5" fill="#06CAF5"/>
<circle cx="228.5" cy="18.5" r="18" stroke="black" stroke-opacity="0.2"/>
<circle cx="18.5" cy="71.5" r="18.5" fill="#063AF5"/>
<circle cx="18.5" cy="71.5" r="17.5" stroke="black" stroke-opacity="0.2" stroke-width="2"/>
<path d="M24.5306 68.0305L16.5306 76.0305C16.4609 76.1004 16.3781 76.1559 16.287 76.1938C16.1958 76.2316 16.0981 76.2511 15.9993 76.2511C15.9006 76.2511 15.8029 76.2316 15.7117 76.1938C15.6206 76.1559 15.5378 76.1004 15.4681 76.0305L11.9681 72.5305C11.8983 72.4607 11.843 72.3779 11.8052 72.2868C11.7675 72.1956 11.748 72.0979 11.748 71.9993C11.748 71.9006 11.7675 71.8029 11.8052 71.7117C11.843 71.6206 11.8983 71.5378 11.9681 71.468C12.0379 71.3982 12.1207 71.3429 12.2118 71.3051C12.303 71.2674 12.4007 71.248 12.4993 71.248C12.598 71.248 12.6957 71.2674 12.7869 71.3051C12.878 71.3429 12.9608 71.3982 13.0306 71.468L16 74.4374L23.4693 66.9693C23.6102 66.8284 23.8013 66.7492 24.0006 66.7492C24.1999 66.7492 24.391 66.8284 24.5318 66.9693C24.6727 67.1102 24.7519 67.3013 24.7519 67.5005C24.7519 67.6998 24.6727 67.8909 24.5318 68.0318L24.5306 68.0305Z" fill="white"/>
<circle cx="71" cy="71.5" r="18.5" fill="#7D06F5"/>
<circle cx="71" cy="71.5" r="18" stroke="black" stroke-opacity="0.2"/>
<circle cx="123.5" cy="71.5" r="18.5" fill="#F506A4"/>
<circle cx="123.5" cy="71.5" r="18" stroke="black" stroke-opacity="0.2"/>
<circle cx="176" cy="71.5" r="18.5" fill="white"/>
<circle cx="176" cy="71.5" r="18" stroke="black" stroke-opacity="0.2"/>
<circle cx="228.5" cy="71.5" r="18.5" fill="black"/>
</svg>
